<svg xmlns="http://www.w3.org/2000/svg" width="30" height="30" fill="none"><circle cx="15" cy="15" r="13.75" fill="#fff" opacity=".1"/><path fill="#D6D6D8" d="M12.037 12.18H9.42a.21.21 0 0 0-.21.21V20.8c0 .116.094.21.21.21h2.617a.21.21 0 0 0 .21-.21V12.39a.21.21 0 0 0-.21-.21M10.73 8c-.953 0-1.728.774-1.728 1.726a1.728 1.728 0 0 0 3.454 0C12.456 8.774 11.68 8 10.73 8M18.695 11.97c-1.052 0-1.829.453-2.3.966v-.546a.21.21 0 0 0-.21-.21h-2.507a.21.21 0 0 0-.21.21V20.8c0 .116.094.21.21.21h2.612a.21.21 0 0 0 .21-.21v-4.16c0-1.402.38-1.949 1.358-1.949 1.064 0 1.149.876 1.149 2.02V20.8c0 .116.094.21.21.21h2.613a.21.21 0 0 0 .21-.21v-4.613c0-2.084-.398-4.215-3.345-4.215"/></svg>