<svg xmlns="http://www.w3.org/2000/svg" width="22" height="22" fill="none"><circle cx="10.999" cy="11" r="9.167" fill="#fff" opacity=".1"/><path fill="#fff" fill-rule="evenodd" d="M16.179 7.507c.183.183.315.41.382.66.39 1.566.3 4.04.008 5.666a1.49 1.49 0 0 1-1.042 1.043c-.915.249-4.594.249-4.594.249s-3.68 0-4.593-.25a1.47 1.47 0 0 1-.66-.382 1.47 1.47 0 0 1-.383-.66c-.391-1.56-.284-4.034-.008-5.659a1.48 1.48 0 0 1 1.043-1.042c.914-.25 4.593-.257 4.593-.257s3.68 0 4.594.25c.25.067.477.199.66.382M12.807 11l-3.053 1.768V9.232z" clip-rule="evenodd" opacity=".8"/></svg>